<svg width="24" height="24" viewBox="0 0 24 24" fill="none" xmlns="http://www.w3.org/2000/svg">
<path d="M18.7763 8.60625L18.6975 8.48625C18.5175 8.7375 18.2175 8.9025 17.835 8.95875V9.1425C17.835 9.315 17.6963 9.45375 17.5238 9.45375C17.3513 9.45375 17.2125 9.315 17.2125 9.1425V8.95125C16.6013 8.83125 16.1438 8.3625 16.1438 7.8075C16.1438 7.635 16.2825 7.49625 16.455 7.49625C16.6275 7.49625 16.7663 7.635 16.7663 7.8075C16.7663 8.025 16.95 8.21625 17.2088 8.3025V7.2375C16.41 7.13625 16.23 6.63375 16.23 6.20625C16.23 6.1425 16.2338 6.07875 16.245 6.01875C16.17 6.01125 16.0913 6.00375 16.0125 6.00375H6.53625C5.86875 6.00375 5.25 6.34125 4.88625 6.9L3.77625 8.6025C3.3375 9.2775 3.3525 10.1475 3.81375 10.8075L9.66375 19.1813C10.4475 20.3025 12.1125 20.3025 12.8963 19.1813L18.7463 10.8075C18.945 10.5188 19.0613 10.1925 19.095 9.85875C19.1363 9.4275 19.0313 8.98125 18.7838 8.6025L18.7763 8.60625ZM13.8713 11.6213C13.5863 11.9062 13.1963 12.0825 12.7613 12.0825H9.78375C8.9175 12.0825 8.21625 11.3813 8.21625 10.515C8.21625 10.0838 8.3925 9.69 8.6775 9.405C8.9625 9.12 9.3525 8.9475 9.7875 8.9475H12.765C13.6313 8.9475 14.3325 9.64875 14.3325 10.515C14.3325 10.9463 14.1563 11.34 13.875 11.625L13.8713 11.6213Z" fill="url(#paint0_linear_1_1631)"/>
<path d="M19.8225 4.70625C19.2337 4.1175 18.42 3.75375 17.52 3.75375C16.62 3.75375 15.8062 4.1175 15.2175 4.70625C14.8575 5.06625 14.58 5.50875 14.4225 6.0075C14.3212 6.3225 14.265 6.66 14.265 7.00875C14.265 8.805 15.72 10.2638 17.52 10.2638C18.0862 10.2638 18.6225 10.1175 19.0837 9.8625C19.3537 9.7125 19.6012 9.52875 19.8187 9.31125C20.4075 8.7225 20.7712 7.90875 20.7712 7.00875C20.7712 6.10875 20.4075 5.295 19.8187 4.70625H19.8225ZM18.6975 8.48625C18.5175 8.7375 18.2175 8.9025 17.835 8.95875V9.1425C17.835 9.315 17.6962 9.45375 17.5237 9.45375C17.3512 9.45375 17.2125 9.315 17.2125 9.1425V8.95125C16.6012 8.83125 16.1437 8.3625 16.1437 7.8075C16.1437 7.635 16.2825 7.49625 16.455 7.49625C16.6275 7.49625 16.7662 7.635 16.7662 7.8075C16.7662 8.025 16.95 8.21625 17.2087 8.3025V7.2375C16.41 7.13625 16.23 6.63375 16.23 6.20625C16.23 6.1425 16.2337 6.07875 16.245 6.01875C16.3275 5.55375 16.71 5.17875 17.2087 5.06625V4.8675C17.2087 4.695 17.3475 4.55625 17.52 4.55625C17.6925 4.55625 17.8312 4.695 17.8312 4.8675V5.06625C18.3937 5.19375 18.81 5.655 18.81 6.20625C18.81 6.37875 18.6712 6.5175 18.4987 6.5175C18.3262 6.5175 18.1875 6.37875 18.1875 6.20625C18.1875 5.99625 18.045 5.81625 17.835 5.7225V6.64875C18.12 6.6825 18.345 6.765 18.5137 6.89625C18.7725 7.095 18.9 7.4025 18.9 7.80375C18.9 8.07 18.8287 8.29875 18.6975 8.4825V8.48625Z" fill="#1DDF9A"/>
<g style="mix-blend-mode:screen" opacity="0.3">
<path d="M19.8225 4.70625C19.2337 4.1175 18.42 3.75375 17.52 3.75375C16.62 3.75375 15.8062 4.1175 15.2175 4.70625C14.8575 5.06625 14.58 5.50875 14.4225 6.0075C14.3212 6.3225 14.265 6.66 14.265 7.00875C14.265 8.805 15.72 10.2638 17.52 10.2638C18.0862 10.2638 18.6225 10.1175 19.0837 9.8625C19.3537 9.7125 19.6012 9.52875 19.8187 9.31125C20.4075 8.7225 20.7712 7.90875 20.7712 7.00875C20.7712 6.10875 20.4075 5.295 19.8187 4.70625H19.8225ZM18.6975 8.48625C18.5175 8.7375 18.2175 8.9025 17.835 8.95875V9.1425C17.835 9.315 17.6962 9.45375 17.5237 9.45375C17.3512 9.45375 17.2125 9.315 17.2125 9.1425V8.95125C16.6012 8.83125 16.1437 8.3625 16.1437 7.8075C16.1437 7.635 16.2825 7.49625 16.455 7.49625C16.6275 7.49625 16.7662 7.635 16.7662 7.8075C16.7662 8.025 16.95 8.21625 17.2087 8.3025V7.2375C16.41 7.13625 16.23 6.63375 16.23 6.20625C16.23 6.1425 16.2337 6.07875 16.245 6.01875C16.3275 5.55375 16.71 5.17875 17.2087 5.06625V4.8675C17.2087 4.695 17.3475 4.55625 17.52 4.55625C17.6925 4.55625 17.8312 4.695 17.8312 4.8675V5.06625C18.3937 5.19375 18.81 5.655 18.81 6.20625C18.81 6.37875 18.6712 6.5175 18.4987 6.5175C18.3262 6.5175 18.1875 6.37875 18.1875 6.20625C18.1875 5.99625 18.045 5.81625 17.835 5.7225V6.64875C18.12 6.6825 18.345 6.765 18.5137 6.89625C18.7725 7.095 18.9 7.4025 18.9 7.80375C18.9 8.07 18.8287 8.29875 18.6975 8.4825V8.48625Z" fill="white"/>
</g>
<path d="M17.9287 7.30125C17.8987 7.29375 17.8687 7.28625 17.8387 7.2825V8.325C18.12 8.26125 18.27 8.09625 18.2812 7.8375C18.2812 7.82625 18.2812 7.81875 18.2812 7.8075C18.2812 7.57875 18.2475 7.38375 17.9287 7.30125Z" fill="#1DDF9A"/>
<g style="mix-blend-mode:screen" opacity="0.3">
<path d="M17.9287 7.30125C17.8987 7.29375 17.8687 7.28625 17.8387 7.2825V8.325C18.12 8.26125 18.27 8.09625 18.2812 7.8375C18.2812 7.82625 18.2812 7.81875 18.2812 7.8075C18.2812 7.57875 18.2475 7.38375 17.9287 7.30125Z" fill="white"/>
</g>
<path d="M16.8563 6.19875C16.8563 6.19875 16.8563 6.20625 16.8563 6.21C16.8563 6.36375 16.8563 6.5475 17.2088 6.61125V5.72625C17.0025 5.81625 16.86 5.9925 16.8563 6.19875Z" fill="#1DDF9A"/>
<g style="mix-blend-mode:screen" opacity="0.3">
<path d="M16.8563 6.19875C16.8563 6.19875 16.8563 6.20625 16.8563 6.21C16.8563 6.36375 16.8563 6.5475 17.2088 6.61125V5.72625C17.0025 5.81625 16.86 5.9925 16.8563 6.19875Z" fill="white"/>
</g>
<defs>
<linearGradient id="paint0_linear_1_1631" x1="3.7683" y1="8.36462" x2="14.6912" y2="20.5561" gradientUnits="userSpaceOnUse">
<stop stop-color="white"/>
<stop offset="0.288462" stop-color="white"/>
<stop offset="0.5" stop-color="#999999"/>
<stop offset="0.697115" stop-color="white"/>
<stop offset="1" stop-color="white"/>
</linearGradient>
</defs>
</svg>
