<svg width="44" height="12" viewBox="0 0 44 12" fill="none" xmlns="http://www.w3.org/2000/svg">
<rect width="5.45383" height="5.45377" fill="#FF4D4F"/>
<rect x="6.54419" width="5.45383" height="2.18151" fill="#6F6F6F"/>
<rect x="6.54419" y="6.5462" width="5.45383" height="2.18151" fill="#6F6F6F"/>
<rect x="6.54419" y="3.2724" width="5.45383" height="2.18151" fill="#6F6F6F"/>
<rect x="6.54419" y="9.81567" width="5.45383" height="2.18151" fill="#6F6F6F"/>
<rect y="6.5462" width="5.45383" height="5.45377" fill="#03C167"/>
<g opacity="0.3">
<rect x="22.5422" y="0.00140381" width="5.45383" height="2.18151" fill="#6F6F6F"/>
<rect x="22.5422" y="6.54761" width="5.45383" height="2.18151" fill="#6F6F6F"/>
<rect x="22.5422" y="3.2738" width="5.45383" height="2.18151" fill="#6F6F6F"/>
<rect x="22.5422" y="9.81708" width="5.45383" height="2.18151" fill="#6F6F6F"/>
<rect x="15.998" y="0.00140381" width="5.45383" height="11.9075" fill="#03C167"/>
</g>
<g opacity="0.3">
<rect x="38.5402" y="0.00140381" width="5.45383" height="2.18151" fill="#6F6F6F"/>
<rect x="38.5402" y="6.54761" width="5.45383" height="2.18151" fill="#6F6F6F"/>
<rect x="38.5402" y="3.2738" width="5.45383" height="2.18151" fill="#6F6F6F"/>
<rect x="38.5402" y="9.81708" width="5.45383" height="2.18151" fill="#6F6F6F"/>
<rect x="31.996" y="0.00140381" width="5.45383" height="11.9075" fill="#FF4D4F"/>
</g>
</svg>
